<svg width="969.601" height="146.55" viewBox="0 0 969.601 146.55" xmlns="http://www.w3.org/2000/svg">
	<g id="svgGroup" stroke-linecap="round" fill-rule="evenodd" font-size="9pt" stroke="#000" stroke-width="0.25mm" fill="none" style="stroke:#FDBFFB;stroke-width:0.25mm;fill:#FDBFFB">
		<path d="M 13.2 100.35 L 12.3 100.35 Q 12.6 102.9 12.9 106.8 A 119.477 119.477 0 0 1 13.083 109.578 Q 13.156 110.947 13.184 112.157 A 61.459 61.459 0 0 1 13.2 113.55 L 13.2 146.55 L 0 146.55 L 0 30.15 L 10.8 30.15 L 12.6 41.1 L 13.2 41.1 A 30.398 30.398 0 0 1 21.223 33.176 A 35.509 35.509 0 0 1 22.65 32.25 A 21.979 21.979 0 0 1 28.515 29.789 Q 32.766 28.65 38.25 28.65 A 34.509 34.509 0 0 1 49.655 30.458 A 29.219 29.219 0 0 1 62.175 39 Q 69.001 46.785 70.693 60.512 A 79.356 79.356 0 0 1 71.25 70.2 A 74.434 74.434 0 0 1 70.386 81.941 Q 69.418 87.989 67.365 92.854 A 32.614 32.614 0 0 1 62.175 101.4 A 29.596 29.596 0 0 1 40.521 111.979 A 40.292 40.292 0 0 1 38.1 112.05 A 40.483 40.483 0 0 1 31.579 111.554 Q 27.964 110.964 24.993 109.67 A 22.099 22.099 0 0 1 22.725 108.525 Q 16.65 105 13.2 100.35 Z M 13.2 67.65 L 13.2 70.2 A 72.845 72.845 0 0 0 13.664 78.715 Q 14.704 87.527 18.075 93.075 A 15.414 15.414 0 0 0 26.494 99.672 Q 29.304 100.654 32.814 100.961 A 38.332 38.332 0 0 0 36.15 101.1 A 21.837 21.837 0 0 0 41.664 100.438 A 16.206 16.206 0 0 0 48.225 97.05 A 22.169 22.169 0 0 0 53.393 90.475 A 29.52 29.52 0 0 0 55.275 86.025 A 43.779 43.779 0 0 0 57.089 78.043 A 59.617 59.617 0 0 0 57.6 70.05 A 58.151 58.151 0 0 0 56.971 61.218 Q 56.258 56.585 54.736 52.794 A 28.142 28.142 0 0 0 52.275 48 A 17.321 17.321 0 0 0 39.653 40.017 A 26.086 26.086 0 0 0 35.85 39.75 A 34.304 34.304 0 0 0 29.587 40.281 Q 26.22 40.908 23.633 42.274 A 14.715 14.715 0 0 0 18.525 46.65 Q 13.5 53.55 13.2 67.65 Z" id="0" vector-effect="non-scaling-stroke"/>
		<path d="M 139.2 29.55 L 137.55 41.7 Q 135.6 41.25 133.275 40.95 A 36.467 36.467 0 0 0 130.184 40.679 A 30.925 30.925 0 0 0 128.85 40.65 Q 122.7 40.65 117.3 44.025 Q 111.9 47.4 108.675 53.475 A 27.256 27.256 0 0 0 105.867 62.09 A 35.786 35.786 0 0 0 105.45 67.65 L 105.45 110.55 L 92.25 110.55 L 92.25 30.15 L 103.05 30.15 L 104.55 44.85 L 105.15 44.85 Q 109.05 38.25 115.2 33.45 A 22.663 22.663 0 0 1 128.443 28.68 A 28.506 28.506 0 0 1 129.75 28.65 A 51.667 51.667 0 0 1 132.4 28.721 A 65.419 65.419 0 0 1 134.625 28.875 Q 136.737 29.056 138.413 29.383 A 23.574 23.574 0 0 1 139.2 29.55 Z" id="1" vector-effect="non-scaling-stroke"/>
		<path d="M 215.4 64.95 L 215.4 72.9 L 160.35 72.9 A 45.79 45.79 0 0 0 161.196 80.975 Q 162.092 85.395 163.919 88.861 A 22.014 22.014 0 0 0 167.325 93.675 A 21.816 21.816 0 0 0 178.698 100.033 A 32.821 32.821 0 0 0 186 100.8 Q 193.38 100.8 199.155 99.474 A 42.006 42.006 0 0 0 199.575 99.375 A 72.391 72.391 0 0 0 207.851 96.831 A 86.546 86.546 0 0 0 211.8 95.25 L 211.8 106.8 A 64.859 64.859 0 0 1 202.754 110.023 A 56.857 56.857 0 0 1 199.65 110.775 A 53.756 53.756 0 0 1 194.024 111.641 Q 191.122 111.942 187.832 112.021 A 100.342 100.342 0 0 1 185.4 112.05 A 47.53 47.53 0 0 1 174.342 110.814 A 38.435 38.435 0 0 1 165.225 107.4 Q 156.45 102.75 151.575 93.525 A 40.034 40.034 0 0 1 147.844 82.915 Q 146.861 78.19 146.723 72.75 A 70.851 70.851 0 0 1 146.7 70.95 A 66.032 66.032 0 0 1 147.488 60.48 Q 148.567 53.763 151.125 48.3 A 36.214 36.214 0 0 1 157.217 39.073 A 31.662 31.662 0 0 1 163.575 33.75 Q 171.6 28.65 182.25 28.65 A 40.006 40.006 0 0 1 190.746 29.512 A 30.057 30.057 0 0 1 200.025 33.15 Q 207.45 37.65 211.425 45.825 A 38.627 38.627 0 0 1 214.744 56.511 A 52.007 52.007 0 0 1 215.4 64.95 Z M 160.65 62.4 L 201.6 62.4 A 37.368 37.368 0 0 0 200.858 55.305 Q 199.711 49.816 196.8 45.825 A 14.831 14.831 0 0 0 188.243 40.17 Q 185.692 39.506 182.624 39.455 A 31.025 31.025 0 0 0 182.1 39.45 A 23.66 23.66 0 0 0 175.572 40.304 A 17.594 17.594 0 0 0 167.175 45.525 A 23.341 23.341 0 0 0 162.705 53.046 Q 161.545 56.138 160.969 59.854 A 45.11 45.11 0 0 0 160.65 62.4 Z" id="2" vector-effect="non-scaling-stroke"/>
		<path d="M 273.9 99.6 L 273.9 109.65 A 12.98 12.98 0 0 1 272.328 110.299 Q 270.64 110.88 268.244 111.314 A 44.979 44.979 0 0 1 267.9 111.375 A 45.789 45.789 0 0 1 262.449 111.997 A 39.811 39.811 0 0 1 260.4 112.05 A 31.994 31.994 0 0 1 252.551 111.113 A 28.225 28.225 0 0 1 248.775 109.875 A 17.517 17.517 0 0 1 241.174 103.832 A 22.182 22.182 0 0 1 240.15 102.3 A 19.523 19.523 0 0 1 238.075 97.418 Q 236.85 93.092 236.85 87.15 L 236.85 40.35 L 225.45 40.35 L 225.45 34.05 L 237 28.8 L 242.25 11.7 L 250.05 11.7 L 250.05 30.15 L 273.3 30.15 L 273.3 40.35 L 250.05 40.35 L 250.05 86.85 Q 250.05 91.535 251.482 94.666 A 10.386 10.386 0 0 0 253.575 97.725 A 11.895 11.895 0 0 0 261.047 101.173 A 16.159 16.159 0 0 0 262.65 101.25 A 37.101 37.101 0 0 0 268.309 100.804 A 41.002 41.002 0 0 0 268.8 100.725 A 61.806 61.806 0 0 0 270.824 100.355 Q 271.722 100.175 272.491 99.986 A 25.422 25.422 0 0 0 273.9 99.6 Z" id="3" vector-effect="non-scaling-stroke"/>
		<path d="M 328.05 99.6 L 328.05 109.65 A 12.98 12.98 0 0 1 326.478 110.299 Q 324.79 110.88 322.394 111.314 A 44.979 44.979 0 0 1 322.05 111.375 A 45.789 45.789 0 0 1 316.599 111.997 A 39.811 39.811 0 0 1 314.55 112.05 A 31.994 31.994 0 0 1 306.701 111.113 A 28.225 28.225 0 0 1 302.925 109.875 A 17.517 17.517 0 0 1 295.324 103.832 A 22.182 22.182 0 0 1 294.3 102.3 A 19.523 19.523 0 0 1 292.225 97.418 Q 291 93.092 291 87.15 L 291 40.35 L 279.6 40.35 L 279.6 34.05 L 291.15 28.8 L 296.4 11.7 L 304.2 11.7 L 304.2 30.15 L 327.45 30.15 L 327.45 40.35 L 304.2 40.35 L 304.2 86.85 Q 304.2 91.535 305.632 94.666 A 10.386 10.386 0 0 0 307.725 97.725 A 11.895 11.895 0 0 0 315.197 101.173 A 16.159 16.159 0 0 0 316.8 101.25 A 37.101 37.101 0 0 0 322.459 100.804 A 41.002 41.002 0 0 0 322.95 100.725 A 61.806 61.806 0 0 0 324.974 100.355 Q 325.872 100.175 326.641 99.986 A 25.422 25.422 0 0 0 328.05 99.6 Z" id="4" vector-effect="non-scaling-stroke"/>
		<path d="M 344.1 30.15 L 357.3 30.15 L 357.3 110.55 L 344.1 110.55 L 344.1 30.15 Z M 350.85 0 Q 353.85 0 356.175 2.025 Q 358.5 4.05 358.5 8.4 A 12.059 12.059 0 0 1 358.273 10.82 Q 357.773 13.256 356.175 14.7 Q 353.85 16.8 350.85 16.8 A 8.557 8.557 0 0 1 347.899 16.307 A 7.589 7.589 0 0 1 345.3 14.7 Q 343.05 12.6 343.05 8.4 A 13.29 13.29 0 0 1 343.246 6.037 Q 343.714 3.453 345.3 2.025 A 7.834 7.834 0 0 1 350.141 0.024 A 10.224 10.224 0 0 1 350.85 0 Z" id="5" vector-effect="non-scaling-stroke"/>
		<path d="M 447 64.95 L 447 72.9 L 391.95 72.9 A 45.79 45.79 0 0 0 392.796 80.975 Q 393.692 85.395 395.519 88.861 A 22.014 22.014 0 0 0 398.925 93.675 A 21.816 21.816 0 0 0 410.298 100.033 A 32.821 32.821 0 0 0 417.6 100.8 Q 424.98 100.8 430.755 99.474 A 42.006 42.006 0 0 0 431.175 99.375 A 72.391 72.391 0 0 0 439.451 96.831 A 86.546 86.546 0 0 0 443.4 95.25 L 443.4 106.8 A 64.859 64.859 0 0 1 434.354 110.023 A 56.857 56.857 0 0 1 431.25 110.775 A 53.756 53.756 0 0 1 425.624 111.641 Q 422.722 111.942 419.432 112.021 A 100.342 100.342 0 0 1 417 112.05 A 47.53 47.53 0 0 1 405.942 110.814 A 38.435 38.435 0 0 1 396.825 107.4 Q 388.05 102.75 383.175 93.525 A 40.034 40.034 0 0 1 379.444 82.915 Q 378.461 78.19 378.323 72.75 A 70.851 70.851 0 0 1 378.3 70.95 A 66.032 66.032 0 0 1 379.088 60.48 Q 380.167 53.763 382.725 48.3 A 36.214 36.214 0 0 1 388.817 39.073 A 31.662 31.662 0 0 1 395.175 33.75 Q 403.2 28.65 413.85 28.65 A 40.006 40.006 0 0 1 422.346 29.512 A 30.057 30.057 0 0 1 431.625 33.15 Q 439.05 37.65 443.025 45.825 A 38.627 38.627 0 0 1 446.344 56.511 A 52.007 52.007 0 0 1 447 64.95 Z M 392.25 62.4 L 433.2 62.4 A 37.368 37.368 0 0 0 432.458 55.305 Q 431.311 49.816 428.4 45.825 A 14.831 14.831 0 0 0 419.843 40.17 Q 417.292 39.506 414.224 39.455 A 31.025 31.025 0 0 0 413.7 39.45 A 23.66 23.66 0 0 0 407.172 40.304 A 17.594 17.594 0 0 0 398.775 45.525 A 23.341 23.341 0 0 0 394.305 53.046 Q 393.145 56.138 392.569 59.854 A 45.11 45.11 0 0 0 392.25 62.4 Z" id="6" vector-effect="non-scaling-stroke"/>
		<path d="M 514.35 29.55 L 512.7 41.7 Q 510.75 41.25 508.425 40.95 A 36.467 36.467 0 0 0 505.334 40.679 A 30.925 30.925 0 0 0 504 40.65 Q 497.85 40.65 492.45 44.025 Q 487.05 47.4 483.825 53.475 A 27.256 27.256 0 0 0 481.017 62.09 A 35.786 35.786 0 0 0 480.6 67.65 L 480.6 110.55 L 467.4 110.55 L 467.4 30.15 L 478.2 30.15 L 479.7 44.85 L 480.3 44.85 Q 484.2 38.25 490.35 33.45 A 22.663 22.663 0 0 1 503.593 28.68 A 28.506 28.506 0 0 1 504.9 28.65 A 51.667 51.667 0 0 1 507.55 28.721 A 65.419 65.419 0 0 1 509.775 28.875 Q 511.887 29.056 513.563 29.383 A 23.574 23.574 0 0 1 514.35 29.55 Z" id="7" vector-effect="non-scaling-stroke"/>
		<path d="M 576.3 29.55 L 574.65 41.7 Q 572.7 41.25 570.375 40.95 A 36.467 36.467 0 0 0 567.284 40.679 A 30.925 30.925 0 0 0 565.95 40.65 Q 559.8 40.65 554.4 44.025 Q 549 47.4 545.775 53.475 A 27.256 27.256 0 0 0 542.967 62.09 A 35.786 35.786 0 0 0 542.55 67.65 L 542.55 110.55 L 529.35 110.55 L 529.35 30.15 L 540.15 30.15 L 541.65 44.85 L 542.25 44.85 Q 546.15 38.25 552.3 33.45 A 22.663 22.663 0 0 1 565.543 28.68 A 28.506 28.506 0 0 1 566.85 28.65 A 51.667 51.667 0 0 1 569.5 28.721 A 65.419 65.419 0 0 1 571.725 28.875 Q 573.837 29.056 575.513 29.383 A 23.574 23.574 0 0 1 576.3 29.55 Z" id="8" vector-effect="non-scaling-stroke"/>
		<path d="M 642.6 33 L 638.55 43.95 Q 635.456 42.79 631.476 41.741 A 106.842 106.842 0 0 0 630.15 41.4 A 41.671 41.671 0 0 0 625.079 40.447 A 32.559 32.559 0 0 0 621.15 40.2 Q 600.143 40.2 597.756 64.124 A 65.856 65.856 0 0 0 597.45 70.65 A 58.777 58.777 0 0 0 598.01 79.053 Q 598.63 83.33 599.933 86.798 A 24.647 24.647 0 0 0 603.225 92.925 A 18.675 18.675 0 0 0 615.365 100.226 A 28.477 28.477 0 0 0 620.4 100.65 Q 627 100.65 632.025 99.3 A 60.558 60.558 0 0 0 638.265 97.27 A 50.89 50.89 0 0 0 641.25 96 L 641.25 107.7 A 36.587 36.587 0 0 1 634.418 110.386 A 42.464 42.464 0 0 1 632.325 110.925 A 39.699 39.699 0 0 1 628.03 111.654 Q 624.647 112.05 620.55 112.05 A 44.599 44.599 0 0 1 609.891 110.822 A 36.849 36.849 0 0 1 601.575 107.7 A 29.755 29.755 0 0 1 589.925 96.679 A 37.294 37.294 0 0 1 588.525 94.2 A 38.673 38.673 0 0 1 585.295 85.218 Q 584.279 80.866 583.953 75.77 A 78.014 78.014 0 0 1 583.8 70.8 A 73.421 73.421 0 0 1 584.385 61.247 Q 585.048 56.204 586.462 52.003 A 35.457 35.457 0 0 1 588.75 46.65 A 34.409 34.409 0 0 1 594.792 38.376 A 29.43 29.43 0 0 1 602.175 33 A 39.378 39.378 0 0 1 615.559 28.994 A 49.188 49.188 0 0 1 621.45 28.65 Q 627.6 28.65 633.3 29.925 A 58.279 58.279 0 0 1 637.203 30.932 Q 639.055 31.484 640.61 32.109 A 26.881 26.881 0 0 1 642.6 33 Z" id="9" vector-effect="non-scaling-stroke"/>
		<path d="M 658.541 99.735 A 17.955 17.955 0 0 0 658.35 102.45 Q 658.35 105.319 659.112 107.341 A 7.211 7.211 0 0 0 661.05 110.25 Q 663.75 112.65 667.5 112.65 A 12.465 12.465 0 0 0 667.803 112.647 A 9.8 9.8 0 0 0 674.175 110.25 Q 676.17 108.525 676.73 105.25 A 16.622 16.622 0 0 0 676.95 102.45 Q 676.95 99.415 676.12 97.367 A 6.608 6.608 0 0 0 674.175 94.65 Q 671.4 92.4 667.5 92.4 A 12.241 12.241 0 0 0 667.122 92.406 A 9.674 9.674 0 0 0 661.05 94.65 A 6.546 6.546 0 0 0 659.209 97.24 Q 658.754 98.34 658.541 99.735 Z" id="10" vector-effect="non-scaling-stroke"/>
		<path d="M 679.5 144.75 L 679.5 134.1 Q 681.75 134.7 684.15 135.15 A 25.966 25.966 0 0 0 687.159 135.526 A 32.792 32.792 0 0 0 689.4 135.6 A 14.428 14.428 0 0 0 693.092 135.15 A 10.912 10.912 0 0 0 697.35 132.975 Q 700.189 130.61 700.469 124.407 A 31.151 31.151 0 0 0 700.5 123 L 700.5 30.15 L 713.7 30.15 L 713.7 122.55 A 39.376 39.376 0 0 1 713.273 128.505 Q 712.77 131.791 711.674 134.558 A 23.395 23.395 0 0 1 711.3 135.45 Q 708.9 140.85 703.95 143.7 A 19.446 19.446 0 0 1 699.045 145.648 Q 696.733 146.24 694.012 146.444 A 39.751 39.751 0 0 1 691.05 146.55 A 45.62 45.62 0 0 1 687.941 146.45 Q 686.407 146.345 685.061 146.13 A 25.81 25.81 0 0 1 684.45 146.025 A 40.019 40.019 0 0 1 682.1 145.523 Q 681.036 145.26 680.105 144.957 A 22.736 22.736 0 0 1 679.5 144.75 Z M 699.646 6.037 A 13.29 13.29 0 0 0 699.45 8.4 Q 699.45 12.6 701.7 14.7 A 7.589 7.589 0 0 0 704.299 16.307 A 8.557 8.557 0 0 0 707.25 16.8 Q 710.25 16.8 712.575 14.7 Q 714.173 13.256 714.673 10.82 A 12.059 12.059 0 0 0 714.9 8.4 Q 714.9 4.05 712.575 2.025 Q 710.25 0 707.25 0 A 10.224 10.224 0 0 0 706.541 0.024 A 7.834 7.834 0 0 0 701.7 2.025 Q 700.114 3.453 699.646 6.037 Z" id="11" vector-effect="non-scaling-stroke"/>
		<path d="M 734.25 106.95 L 734.25 94.95 Q 738.375 97.013 743.996 98.798 A 102.574 102.574 0 0 0 745.875 99.375 Q 752.7 101.4 759.75 101.4 Q 768.514 101.4 773.057 98.948 A 11.539 11.539 0 0 0 774.3 98.175 Q 778.707 95.017 778.798 89.772 A 12.8 12.8 0 0 0 778.8 89.55 Q 778.8 86.55 777.15 84.15 A 10.31 10.31 0 0 0 775.705 82.5 Q 774.143 81.031 771.598 79.563 A 36.264 36.264 0 0 0 771.225 79.35 Q 767.363 77.182 760.503 74.525 A 184.182 184.182 0 0 0 759 73.95 A 149.63 149.63 0 0 1 753.466 71.7 Q 750.477 70.411 747.904 69.122 A 81.471 81.471 0 0 1 745.65 67.95 A 29.68 29.68 0 0 1 741.282 65.095 A 21.623 21.623 0 0 1 737.1 60.75 A 15.4 15.4 0 0 1 734.695 55.352 Q 734.1 52.889 734.1 49.95 A 19.851 19.851 0 0 1 735.422 42.56 Q 737.277 37.892 741.736 34.678 A 22.959 22.959 0 0 1 742.425 34.2 A 30.743 30.743 0 0 1 751.704 30.126 Q 757.289 28.65 764.25 28.65 Q 771.6 28.65 777.975 30.075 A 60.42 60.42 0 0 1 788.411 33.393 A 55.112 55.112 0 0 1 789.9 34.05 L 785.4 44.55 Q 780.3 42.45 774.75 40.95 Q 769.2 39.45 763.35 39.45 A 40.336 40.336 0 0 0 758.878 39.682 Q 753.981 40.229 750.975 42.075 A 10.313 10.313 0 0 0 748.63 44 A 7.575 7.575 0 0 0 746.7 49.2 Q 746.7 52.5 748.65 54.825 Q 750.518 57.052 754.793 59.141 A 39.487 39.487 0 0 0 755.175 59.325 A 117.481 117.481 0 0 0 758.335 60.765 Q 762.141 62.438 767.4 64.5 Q 775.05 67.35 780.45 70.35 A 27.334 27.334 0 0 1 784.886 73.387 A 20.444 20.444 0 0 1 788.7 77.625 Q 791.473 81.784 791.548 88.003 A 28.8 28.8 0 0 1 791.55 88.35 A 24.912 24.912 0 0 1 790.475 95.872 A 19.07 19.07 0 0 1 782.85 106.05 A 31.208 31.208 0 0 1 773.381 110.355 Q 767.263 112.05 759.45 112.05 A 87.987 87.987 0 0 1 753.009 111.827 Q 749.965 111.603 747.309 111.155 A 46.422 46.422 0 0 1 744.975 110.7 Q 738.9 109.35 734.25 106.95 Z" id="12" vector-effect="non-scaling-stroke"/>
		<path d="M 870.825 101.1 A 33.374 33.374 0 0 0 875.284 95.011 Q 880.95 85.124 880.95 70.2 A 72.24 72.24 0 0 0 880.908 67.733 Q 880.729 62.467 879.769 57.881 A 40.664 40.664 0 0 0 876.225 47.625 A 40.218 40.218 0 0 0 875.307 45.934 A 33.223 33.223 0 0 0 863.175 33.525 A 34.274 34.274 0 0 0 854.494 29.946 A 41.683 41.683 0 0 0 843.9 28.65 A 47.779 47.779 0 0 0 836.088 29.263 A 33.212 33.212 0 0 0 816.6 39.45 Q 809.845 46.709 807.63 58.101 A 63.461 63.461 0 0 0 806.55 70.2 A 72.338 72.338 0 0 0 806.567 71.757 Q 806.683 77.159 807.613 81.887 A 41.809 41.809 0 0 0 811.35 92.925 Q 816.15 102.3 824.475 107.175 A 34.42 34.42 0 0 0 832.204 110.508 A 39.751 39.751 0 0 0 843.45 112.05 A 47.734 47.734 0 0 0 850.656 111.526 A 33.469 33.469 0 0 0 870.825 101.1 Z M 820.2 70.2 Q 820.2 84.45 825.825 92.775 A 18.202 18.202 0 0 0 837.604 100.495 A 29.409 29.409 0 0 0 843.75 101.1 A 27.983 27.983 0 0 0 850.714 100.287 A 18.219 18.219 0 0 0 861.6 92.775 A 29.702 29.702 0 0 0 865.595 84.014 Q 866.714 80.063 867.099 75.348 A 63.366 63.366 0 0 0 867.3 70.2 A 57.6 57.6 0 0 0 866.686 61.511 Q 865.989 56.952 864.501 53.248 A 26.517 26.517 0 0 0 861.6 47.85 A 18.325 18.325 0 0 0 850.321 40.464 A 29.671 29.671 0 0 0 843.6 39.75 Q 831.3 39.75 825.75 47.85 A 28.51 28.51 0 0 0 821.968 56.073 Q 820.87 59.851 820.454 64.386 A 63.685 63.685 0 0 0 820.2 70.2 Z" id="13" vector-effect="non-scaling-stroke"/>
		<path d="M 969.6 58.2 L 969.6 110.55 L 956.55 110.55 L 956.55 59.1 Q 956.55 52.939 954.813 48.754 A 14.433 14.433 0 0 0 952.2 44.55 Q 948.632 40.613 941.732 39.905 A 31.224 31.224 0 0 0 938.55 39.75 A 37.132 37.132 0 0 0 932.04 40.279 Q 928.519 40.908 925.819 42.283 A 15.011 15.011 0 0 0 920.1 47.25 Q 916.457 52.608 915.416 61.334 A 63.623 63.623 0 0 0 915 68.85 L 915 110.55 L 901.8 110.55 L 901.8 30.15 L 912.45 30.15 L 914.4 41.1 L 915.15 41.1 Q 919.05 34.8 925.95 31.725 Q 932.85 28.65 940.5 28.65 A 47.394 47.394 0 0 1 948.764 29.323 Q 953.236 30.116 956.763 31.845 A 21.935 21.935 0 0 1 962.25 35.625 Q 969.6 42.6 969.6 58.2 Z" id="14" vector-effect="non-scaling-stroke"/>
	</g>
</svg>